<svg id="Layer_1" data-name="Layer 1" xmlns="http://www.w3.org/2000/svg" viewBox="0 0 2788.87 1400.21">
  <defs>
    <style>
      .cls-1 {
        fill: #fff;
      }

      .cls-2 {
        fill: #3182ce;
      }

      .cls-3 {
        fill: #bee3f8;
      }

      .cls-4 {
        fill: #feb2b2;
      }

      .cls-5 {
        fill: #2d3748;
      }

      .cls-6 {
        fill: #fc8181;
      }

      .cls-7 {
        fill: #4a5568;
      }
    </style>
  </defs>
  <title>Logo_Yutna_V.3.0</title>
  <rect class="cls-1" x="-24.53" y="-16.95" width="2845.94" height="1441.98" />
  <path class="cls-2"
    d="M1497.15,800.31,1387.77,629a28.35,28.35,0,0,1-3-6.52,22.09,22.09,0,0,1-1-6.53,22.89,22.89,0,0,1,1.75-8.78,28.53,28.53,0,0,1,4.77-7.77,33.49,33.49,0,0,1,7-6.15,33.19,33.19,0,0,1,18.07-5.39q16.31,0,26.09,15.8l90.06,148,92.57-151.27q8.27-13.54,23.58-13.55a28.12,28.12,0,0,1,9.78,1.76,28.51,28.51,0,0,1,8.41,4.77,23.84,23.84,0,0,1,5.89,7.27,19.5,19.5,0,0,1,2.26,9.28,22.91,22.91,0,0,1-1.13,7,34.81,34.81,0,0,1-3.39,7.27L1559.36,798.05V917.21q0,14.06-9.28,22.08a33.67,33.67,0,0,1-43.65,0q-9.29-8-9.28-22.33Z" />
  <path class="cls-2"
    d="M1721.83,945.18a84.17,84.17,0,0,1-28.73-17q-12.66-11.42-19.94-30.23t-7.28-43.4V723q0-12.54,8.16-19.44a29.1,29.1,0,0,1,19.44-6.9,28.78,28.78,0,0,1,19.19,6.9q8.14,6.9,8.16,19.44V855q0,28.59,13.92,43.52t37,14.93q26.84,0,46.41-21t20.07-55.56V723q0-12.28,8.15-19.31a30.45,30.45,0,0,1,38.76-.13q8,6.9,8,19.44V921.48q0,12.28-8.28,19.06a29.93,29.93,0,0,1-19.57,6.78,29.27,29.27,0,0,1-19.06-6.53q-8-6.51-8-18.31V907.93a71.41,71.41,0,0,1-32,31.86q-21.43,11-49.79,11A103.46,103.46,0,0,1,1721.83,945.18Z" />
  <path class="cls-2"
    d="M1991.92,929.88q-18.43-19.93-18.44-55.82V734.83h-27.85q-9.53,0-14.8-5.26a17.45,17.45,0,0,1-5.27-12.8,17,17,0,0,1,5-12.54q5-5,14.55-5h28.35l7.52-68q1.26-10.79,8.66-17.44t18.44-6.65q9,0,14.67,5.15t5.65,15.68v71.24h43.9q9.53,0,14.43,5.14a18,18,0,0,1,4.89,12.92q0,7.79-4.77,12.67t-14.55,4.89h-43.9V861q0,15,2.51,25t8.78,15.55q6.27,5.65,16.56,5.65h2.25l18.31-1.26h1.76a21.18,21.18,0,0,1,11.67,3.14,20,20,0,0,1,7.27,7.9,22.69,22.69,0,0,1,2.38,10.29,23.44,23.44,0,0,1-1,7.15,14.71,14.71,0,0,1-3,5.39,25.69,25.69,0,0,1-4.51,4,19.58,19.58,0,0,1-6.15,2.76q-3.64,1-7.15,1.76a52.72,52.72,0,0,1-8.28,1c-3.18.17-6,.29-8.53.38s-5.6.13-9.28.13h-9.78Q2010.35,949.83,1991.92,929.88Z" />
  <path class="cls-2"
    d="M2145,940.42q-8.16-6.9-8.15-19.44V722.54q0-12,8.28-18.94a31.28,31.28,0,0,1,38.88-.25q8,6.64,8,18.44v14.05a71.2,71.2,0,0,1,31.61-31.74q21.07-10.9,49.67-10.91a104.8,104.8,0,0,1,34.74,5.64,86.45,86.45,0,0,1,29,16.94q12.8,11.28,20.07,30.1t7.27,43.4V921q0,12.54-8.27,19.44a29.62,29.62,0,0,1-19.57,6.9,28.3,28.3,0,0,1-19.07-6.9q-8-6.9-8-19.44V788.77q0-28.35-14.29-43.4t-37.38-15q-26.85,0-46.16,21.07T2192,806.83V921q0,12.28-8.15,19.31a28.8,28.8,0,0,1-19.45,7A29.11,29.11,0,0,1,2145,940.42Z" />
  <path class="cls-2"
    d="M2430.12,932q-24.82-18.81-24.83-53.43a117.1,117.1,0,0,1,2.13-23.58,53.9,53.9,0,0,1,7.27-18.32A64.52,64.52,0,0,1,2426.24,823q6.39-5.64,17.18-9.53a168.8,168.8,0,0,1,21.95-6.27,227.69,227.69,0,0,1,28-3.77q16.8-1.37,32.87-1.75t39.13-.38V779.24q0-49.17-47.66-49.17a136.31,136.31,0,0,0-30.11,3.64q-16.05,3.63-22.7,6t-20.7,7.9a8.69,8.69,0,0,1-2.13.75c-.75.17-1.47.29-2.13.38a16.94,16.94,0,0,1-2,.12,17.43,17.43,0,0,1-13.67-6.52,21.67,21.67,0,0,1-5.65-14.55q0-9.78,9.29-14.3,40.64-20.32,92.06-20.32,46.41,0,73.51,21.95t27.09,68.36V921q0,12.54-8,19.44a28.29,28.29,0,0,1-19.06,6.9,29.87,29.87,0,0,1-12-2.51q-14.8-6.52-14.81-23.58V907.68q-21.83,43.16-72.75,43.15Q2455,950.83,2430.12,932Zm114.9-38.5q20.07-21.45,20.07-54.57v-6.52q-17.07,0-29,.25t-23.33,1.13a189.35,189.35,0,0,0-18.94,2.26,90.08,90.08,0,0,0-14.17,3.76,36.36,36.36,0,0,0-10.54,5.52,29.27,29.27,0,0,0-6.64,7.65,30.68,30.68,0,0,0-3.89,10.16,65.73,65.73,0,0,0-1.13,12.92q0,20.07,11.29,29.48t29.85,9.4Q2525,915,2545,893.51Z" />
  <circle class="cls-3" cx="718.44" cy="697.61" r="551.11" />
  <rect class="cls-4" x="385.74" y="701.23" width="189.61" height="202.04" rx="94.8" />
  <rect class="cls-4" x="860.11" y="701.23" width="189.61" height="202.04" rx="94.8" />
  <rect class="cls-4" x="432.94" y="370.42" width="568.83" height="753.36" rx="284.41" />
  <path class="cls-5"
    d="M431.27,750.3S483.45,721.8,508,594.78c0,0,154.63,177.68,474.24,67.05L1002.1,747S1270.65,414.55,795,301.3c-88.33-21-327.87,11.59-356.32,144.34C438.71,445.64,239.7,534.6,431.27,750.3Z" />
  <rect class="cls-5" x="513.79" y="721.83" width="139.83" height="48.57" rx="24.28"
    transform="translate(204.94 -122.18) rotate(14.47)" />
  <rect class="cls-5" x="513.79" y="805.65" width="139.83" height="30.32" rx="15.16" />
  <rect class="cls-5" x="774.57" y="721.83" width="139.83" height="48.57" rx="24.28"
    transform="translate(1848.6 1257.57) rotate(165.53)" />
  <rect class="cls-5" x="774.57" y="805.65" width="139.83" height="30.32" rx="15.16"
    transform="translate(1688.96 1641.61) rotate(180)" />
  <rect class="cls-6" x="668.08" y="801.75" width="87.22" height="154.59" rx="43.61" />
  <path class="cls-7"
    d="M851.61,1039.4c-12.36-37.08-17.66-51.79-32.08-45.61s25.12,53.64-50.32,82.43c-5.58,2.13-52.05,19.43-104.86,0-76-28-36.59-71.72-51-77.9s-19,4-31.39,41.08c-9.45,28.36-52.65,6.11-72.45-5.93a283.59,283.59,0,0,0,207.86,90.31h0a283.64,283.64,0,0,0,209.43-92C908.58,1043.2,861.53,1069.16,851.61,1039.4Z" />
</svg>
