<?xml version="1.0" encoding="UTF-8"?>
<svg xmlns="http://www.w3.org/2000/svg" xmlns:xlink="http://www.w3.org/1999/xlink" width="128px" height="128px"
  viewBox="0 0 128 128" version="1.1">
  <g id="surface1">
    <path style="stroke:none;fill-rule:nonzero;fill:rgb(100%,100%,100%);fill-opacity:1;"
      d="M 128 64 C 128 99.34375 99.34375 128 64 128 C 28.652344 128 0 99.34375 0 64 C 0 28.652344 28.652344 0 64 0 C 99.34375 0 128 28.652344 128 64 Z M 128 64 " />
    <path style="stroke:none;fill-rule:nonzero;fill:rgb(99.607843%,69.803922%,69.803922%);fill-opacity:1;"
      d="M 36.375 64.417969 C 42.453125 64.417969 47.382812 69.347656 47.382812 75.429688 L 47.382812 76.875 C 47.382812 82.953125 42.453125 87.882812 36.375 87.882812 C 30.292969 87.882812 25.363281 82.953125 25.363281 76.875 L 25.363281 75.429688 C 25.363281 69.347656 30.292969 64.417969 36.375 64.417969 Z M 36.375 64.417969 " />
    <path style="stroke:none;fill-rule:nonzero;fill:rgb(99.607843%,69.803922%,69.803922%);fill-opacity:1;"
      d="M 91.460938 64.417969 C 97.542969 64.417969 102.472656 69.347656 102.472656 75.429688 L 102.472656 76.875 C 102.472656 82.953125 97.542969 87.882812 91.460938 87.882812 C 85.382812 87.882812 80.453125 82.953125 80.453125 76.875 L 80.453125 75.429688 C 80.453125 69.347656 85.382812 64.417969 91.460938 64.417969 Z M 91.460938 64.417969 " />
    <path style="stroke:none;fill-rule:nonzero;fill:rgb(99.607843%,69.803922%,69.803922%);fill-opacity:1;"
      d="M 63.871094 26.003906 L 63.875 26.003906 C 82.113281 26.003906 96.902344 40.789062 96.902344 59.03125 L 96.902344 80.460938 C 96.902344 98.703125 82.113281 113.488281 63.875 113.488281 L 63.871094 113.488281 C 45.632812 113.488281 30.84375 98.703125 30.84375 80.460938 L 30.84375 59.03125 C 30.84375 40.789062 45.632812 26.003906 63.871094 26.003906 Z M 63.871094 26.003906 " />
    <path style="stroke:none;fill-rule:nonzero;fill:rgb(17.647059%,21.568627%,28.235294%);fill-opacity:1;"
      d="M 30.652344 70.117188 C 30.652344 70.117188 36.710938 66.808594 39.566406 52.058594 C 39.566406 52.058594 57.523438 72.691406 94.640625 59.84375 L 96.941406 69.730469 C 96.941406 69.730469 128.128906 31.128906 72.894531 17.976562 C 62.636719 15.539062 34.820312 19.324219 31.515625 34.738281 C 31.515625 34.738281 8.40625 45.070312 30.652344 70.117188 Z M 30.652344 70.117188 " />
    <path style="stroke:none;fill-rule:nonzero;fill:rgb(17.647059%,21.568627%,28.235294%);fill-opacity:1;"
      d="M 43.925781 65.578125 L 54.1875 68.226562 C 55.695312 68.613281 56.601562 70.152344 56.214844 71.660156 C 55.824219 73.167969 54.285156 74.078125 52.777344 73.6875 L 42.515625 71.039062 C 41.007812 70.648438 40.101562 69.113281 40.492188 67.605469 L 40.492188 67.601562 C 40.878906 66.09375 42.417969 65.1875 43.925781 65.578125 Z M 43.925781 65.578125 " />
    <path style="stroke:none;fill-rule:nonzero;fill:rgb(17.647059%,21.568627%,28.235294%);fill-opacity:1;"
      d="M 41.996094 76.546875 L 54.710938 76.546875 C 55.683594 76.546875 56.472656 77.335938 56.472656 78.304688 C 56.472656 79.277344 55.683594 80.066406 54.710938 80.066406 L 41.996094 80.066406 C 41.023438 80.066406 40.234375 79.277344 40.234375 78.304688 C 40.234375 77.335938 41.023438 76.546875 41.996094 76.546875 Z M 41.996094 76.546875 " />
    <path style="stroke:none;fill-rule:nonzero;fill:rgb(17.647059%,21.568627%,28.235294%);fill-opacity:1;"
      d="M 84.472656 71.039062 L 74.210938 73.6875 C 72.703125 74.078125 71.164062 73.171875 70.777344 71.664062 L 70.777344 71.660156 C 70.386719 70.152344 71.292969 68.617188 72.800781 68.226562 L 83.0625 65.578125 C 84.570312 65.191406 86.109375 66.097656 86.5 67.605469 C 86.886719 69.113281 85.980469 70.652344 84.472656 71.039062 Z M 84.472656 71.039062 " />
    <path style="stroke:none;fill-rule:nonzero;fill:rgb(17.647059%,21.568627%,28.235294%);fill-opacity:1;"
      d="M 84.996094 80.066406 L 72.28125 80.066406 C 71.308594 80.066406 70.519531 79.277344 70.519531 78.304688 C 70.519531 77.332031 71.308594 76.542969 72.28125 76.542969 L 84.996094 76.542969 C 85.96875 76.542969 86.757812 77.332031 86.757812 78.304688 C 86.757812 79.277344 85.96875 80.066406 84.996094 80.066406 Z M 84.996094 80.066406 " />
    <path style="stroke:none;fill-rule:nonzero;fill:rgb(98.823529%,50.588235%,50.588235%);fill-opacity:1;"
      d="M 63.214844 76.09375 C 66.011719 76.09375 68.28125 78.359375 68.28125 81.15625 L 68.28125 88.980469 C 68.28125 91.777344 66.011719 94.046875 63.214844 94.046875 C 60.417969 94.046875 58.152344 91.777344 58.152344 88.980469 L 58.152344 81.15625 C 58.152344 78.359375 60.417969 76.09375 63.214844 76.09375 Z M 63.214844 76.09375 " />
    <path style="stroke:none;fill-rule:nonzero;fill:rgb(29.019608%,33.333333%,40.784314%);fill-opacity:1;"
      d="M 79.464844 103.691406 C 78.03125 99.386719 77.414062 97.675781 75.738281 98.394531 C 74.066406 99.113281 78.65625 104.625 69.894531 107.964844 C 69.246094 108.214844 63.855469 110.222656 57.71875 107.964844 C 48.894531 104.714844 53.46875 99.636719 51.796875 98.921875 C 50.125 98.203125 49.589844 99.386719 48.152344 103.691406 C 47.050781 106.984375 42.039062 104.398438 39.738281 103.003906 C 45.976562 109.703125 54.71875 113.5 63.871094 113.488281 C 73.117188 113.5 81.941406 109.621094 88.191406 102.804688 C 86.082031 104.132812 80.617188 107.148438 79.464844 103.691406 Z M 79.464844 103.691406 " />
  </g>
</svg>
